<svg t="1573703159345" class="icon" viewBox="0 0 1208 1024" version="1.1" xmlns="http://www.w3.org/2000/svg" p-id="2028" width="200" height="200"><path d="M613.710438 1022.276094a64.646465 64.646465 0 0 1-44.821549-21.548821L269.791246 700.767677H86.195286a86.195286 86.195286 0 0 1-86.195286-86.195286V405.979798a86.195286 86.195286 0 0 1 86.195286-86.195286h182.734007L568.026936 21.548822A64.646465 64.646465 0 0 1 612.848485 0c28.444444 0 47.407407 24.13468 47.407407 59.474747v904.188553c0 34.478114-18.10101 58.612795-46.545454 58.612794zM86.195286 386.154882a19.824916 19.824916 0 0 0-19.824916 19.824916v210.316498a19.824916 19.824916 0 0 0 19.824916 19.824916h210.316499l299.959595 299.959596V86.195286L296.511785 386.154882z m648.188552 409.42761a31.892256 31.892256 0 1 1 0-63.784512 195.6633 195.6633 0 0 0 187.905724-203.420876 195.6633 195.6633 0 0 0-187.905724-203.420875 31.892256 31.892256 0 0 1-31.892256-31.892256 32.754209 32.754209 0 0 1 31.892256-34.478114 258.585859 258.585859 0 0 1 251.690236 268.06734 258.585859 258.585859 0 0 1-251.690236 268.929293z" fill="#1296db" p-id="2029"></path><path d="M915.393939 952.457912a31.892256 31.892256 0 0 1-28.444444-18.10101 26.720539 26.720539 0 0 1 0-24.13468 35.340067 35.340067 0 0 1 16.377104-18.962963A418.047138 418.047138 0 0 0 1142.087542 517.171717a430.976431 430.976431 0 0 0-262.895623-385.292929 37.063973 37.063973 0 0 1-17.239057-17.239057 33.616162 33.616162 0 0 1 0-28.444445 31.030303 31.030303 0 0 1 29.306397-18.962963 28.444444 28.444444 0 0 1 12.929293 0A488.727273 488.727273 0 0 1 1206.734007 517.171717a485.279461 485.279461 0 0 1-275.824916 430.976431 34.478114 34.478114 0 0 1-14.653199 0z" fill="#1296db" p-id="2030"></path></svg>